# xmcd
#
# Track frame offsets:
#  182
#  22827
#  45582
#  64652
#  79617
#  102537
#  120590
#  134940
#  156202
#  177990
#  195210
#  217070
#  235402
#  256465
#  275817
#
# Disc length: 3961 seconds
#
# Revision: 0
# Processed by: cddbd v1.4PL0 Copyright (c) Steve Scherf et al.
# Submitted via: AltoMP3_Maker 3.0
#
DISCID=da0f770f
DTITLE=Fafá - Doces palavras
DYEAR=1900
DGENRE=
TTITLE0=Amor da minha vida
TTITLE1=Aguas passadas
TTITLE2=Um homem que amei
TTITLE3=Mula capenga
TTITLE4=Vou brigar com o mundo
TTITLE5=Tô carente
TTITLE6=Que queres tu de mim
TTITLE7=Coração xonado
TTITLE8=Doces palavras
TTITLE9=Meu bombom
TTITLE10=Minha vida em tuas mãos
TTITLE11=Minha paixão
TTITLE12=Eu daria minha vida
TTITLE13=A luz é minha voz
TTITLE14=Dê uma chance ao coração
EXTD=
EXTT0=
EXTT1=
EXTT2=
EXTT3=
EXTT4=
EXTT5=
EXTT6=
EXTT7=
EXTT8=
EXTT9=
EXTT10=
EXTT11=
EXTT12=
EXTT13=
EXTT14=
PLAYORDER=
